<svg width="68" height="32" fill="none" xmlns="http://www.w3.org/2000/svg"><g filter="url(#filter0_i)"><rect width="68" height="32" rx="16" transform="matrix(-1 0 0 1 68 0)" fill="#8ECFF3"/></g><g filter="url(#filter1_d)"><path d="M53 17a6 6 0 100-12 6 6 0 000 12z" fill="#F5DD03"/></g><path d="M40.656 14.51c.177 0 .353.019.526.055a2.234 2.234 0 011.145-1.558 2.106 2.106 0 011.893-.035c.546-1.553 2.206-2.355 3.71-1.792 1.502.564 2.278 2.28 1.733 3.834 1.316.043 2.356 1.169 2.337 2.53-.02 1.36-1.092 2.454-2.41 2.456h-8.934C39.19 20 38 18.771 38 17.255c0-1.515 1.19-2.744 2.656-2.744z" fill="#D6F4FF" fill-opacity=".8"/><defs><filter id="filter0_i" x="-6" y="-4" width="74" height="36" filterUnits="userSpaceOnUse" color-interpolation-filters="sRGB"><feFlood flood-opacity="0" result="BackgroundImageFix"/><feBlend in="SourceGraphic" in2="BackgroundImageFix" result="shape"/><feColorMatrix in="SourceAlpha" values="0 0 0 0 0 0 0 0 0 0 0 0 0 0 0 0 0 0 127 0" result="hardAlpha"/><feOffset dx="-6" dy="-4"/><feGaussianBlur stdDeviation="4"/><feComposite in2="hardAlpha" operator="arithmetic" k2="-1" k3="1"/><feColorMatrix values="0 0 0 0 0.622951 0 0 0 0 0.846836 0 0 0 0 0.970833 0 0 0 1 0"/><feBlend in2="shape" result="effect1_innerShadow"/></filter><filter id="filter1_d" x="42" y="0" width="22" height="22" filterUnits="userSpaceOnUse" color-interpolation-filters="sRGB"><feFlood flood-opacity="0" result="BackgroundImageFix"/><feColorMatrix in="SourceAlpha" values="0 0 0 0 0 0 0 0 0 0 0 0 0 0 0 0 0 0 127 0"/><feOffset/><feGaussianBlur stdDeviation="2.5"/><feColorMatrix values="0 0 0 0 0.937255 0 0 0 0 0.85098 0 0 0 0 0.0745098 0 0 0 1 0"/><feBlend in2="BackgroundImageFix" result="effect1_dropShadow"/><feBlend in="SourceGraphic" in2="effect1_dropShadow" result="shape"/></filter></defs></svg>