<svg width="58" height="73" fill="none" xmlns="http://www.w3.org/2000/svg"><path d="M39.697.6H.8v72h56.4V18.103L39.697.6zm.703 4.097L53.103 17.4H40.4V4.697zM3.2 70.2V3H38v16.8h16.8v50.4H3.2z" fill="url(#paint0_linear)"/><path d="M44 25.8H24.8a1.2 1.2 0 100 2.4H44a1.2 1.2 0 100-2.4z" fill="url(#paint1_linear)"/><path d="M20.45 22.463l-5.161 4.129-1.64-1.64a1.199 1.199 0 10-1.697 1.696l2.4 2.4a1.198 1.198 0 001.597.09l6-4.8a1.2 1.2 0 00-1.499-1.875z" fill="#7F2210"/><path d="M44 39H24.8a1.2 1.2 0 100 2.4H44a1.2 1.2 0 100-2.4z" fill="url(#paint2_linear)"/><path d="M20.45 35.663l-5.161 4.129-1.64-1.64a1.199 1.199 0 10-1.697 1.696l2.4 2.4a1.198 1.198 0 001.597.09l6-4.8a1.2 1.2 0 00-1.499-1.875z" fill="#7F2210"/><path d="M44 52.2H24.8a1.2 1.2 0 100 2.4H44a1.2 1.2 0 100-2.4z" fill="url(#paint3_linear)"/><path d="M20.45 48.863l-5.161 4.13-1.64-1.641a1.199 1.199 0 10-1.697 1.697l2.4 2.4a1.198 1.198 0 001.597.088l6-4.8a1.2 1.2 0 00-1.499-1.874z" fill="#7F2210"/><defs><linearGradient id="paint0_linear" x1="29" y1=".6" x2="29" y2="72.6" gradientUnits="userSpaceOnUse"><stop stop-color="#1C8941" stop-opacity=".83"/><stop offset=".99" stop-color="#0C5D27"/></linearGradient><linearGradient id="paint1_linear" x1="34.4" y1="25.8" x2="34.4" y2="28.2" gradientUnits="userSpaceOnUse"><stop stop-color="#1C8941" stop-opacity=".83"/><stop offset=".99" stop-color="#0C5D27"/></linearGradient><linearGradient id="paint2_linear" x1="34.4" y1="39" x2="34.4" y2="41.4" gradientUnits="userSpaceOnUse"><stop stop-color="#1C8941" stop-opacity=".83"/><stop offset=".99" stop-color="#0C5D27"/></linearGradient><linearGradient id="paint3_linear" x1="34.4" y1="52.2" x2="34.4" y2="54.6" gradientUnits="userSpaceOnUse"><stop stop-color="#1C8941" stop-opacity=".83"/><stop offset=".99" stop-color="#0C5D27"/></linearGradient></defs></svg>