<svg width="48" height="60" fill="none" xmlns="http://www.w3.org/2000/svg"><path d="M46.85 14.747a1.152 1.152 0 001.15-1.15V7.254a1.15 1.15 0 00-1.15-1.15H35.144V1.15A1.15 1.15 0 0033.995 0h-19.99a1.151 1.151 0 00-1.15 1.15v4.954H1.15A1.152 1.152 0 000 7.254v6.343a1.15 1.15 0 001.15 1.15h1.87L5.4 58.912A1.15 1.15 0 006.55 60h34.902a1.152 1.152 0 001.15-1.088l2.38-44.165h1.868zM15.155 2.299h17.688v3.805H15.156V2.3zM2.301 8.404H45.7v4.043H2.3V8.404zM40.361 57.7H7.639L5.324 14.747h37.352L40.36 57.7z" fill="url(#paint0_linear)"/><path d="M15.296 46.608a1.152 1.152 0 001.15-1.15V24.314a1.149 1.149 0 00-1.964-.813 1.149 1.149 0 00-.337.813v21.144a1.15 1.15 0 001.15 1.15zm8.704 0a1.152 1.152 0 001.15-1.15V24.314a1.15 1.15 0 00-1.964-.813 1.149 1.149 0 00-.337.813v21.144A1.15 1.15 0 0024 46.608zm8.704 0a1.151 1.151 0 001.151-1.15V24.314a1.15 1.15 0 00-1.964-.813 1.149 1.149 0 00-.337.813v21.144a1.15 1.15 0 001.15 1.15z" fill="#7F2210"/><defs><linearGradient id="paint0_linear" x1="24" y1="0" x2="24" y2="60" gradientUnits="userSpaceOnUse"><stop stop-color="#1C8941" stop-opacity=".83"/><stop offset=".99" stop-color="#0C5D27"/></linearGradient></defs></svg>