<svg width="60" height="52" fill="none" xmlns="http://www.w3.org/2000/svg"><path d="M59.282 16.665L15.118.069a1.086 1.086 0 00-1.4.655h-.002l-4.887 13.5a1.11 1.11 0 00.647 1.42l5.12 1.907-1.128 3.116a1.11 1.11 0 00.648 1.42l10.24 3.813-.753 2.078c-.683 1.861-.045 3.956 1.555 5.1v5.647H10.48a5.486 5.486 0 00-3.9-3.209v-2.323a1.1 1.1 0 00-1.091-1.107H1.09c-.603 0-1.091.496-1.091 1.107v17.702A1.1 1.1 0 001.09 52h4.4c.602 0 1.09-.495 1.09-1.106V48.57a5.487 5.487 0 003.901-3.21h14.677v1.107c0 1.833 1.465 3.32 3.272 3.32 1.807 0 3.273-1.487 3.273-3.32V34.212a4.366 4.366 0 002.139-2.418l.752-2.078 9.216 3.43c.12.045.247.068.375.068.458 0 .867-.29 1.025-.725l.409-1.13c3.55.678 6.968-1.691 7.635-5.291a6.722 6.722 0 00-.459-3.94l6.613-3.444a1.114 1.114 0 00-.12-2.023l-.005.004zm-31.944 17.42l.903.332c.411.15.843.236 1.279.255v4.052h-2.182v-4.638zM4.398 49.788H2.182v-15.49h2.216v15.49zm4.363-6.639a3.324 3.324 0 01-2.182 3.13v-8.473a3.323 3.323 0 012.182 3.13v2.213zm2.216-2.213H29.52v2.213H10.977v-2.213zm17.452 6.639c-.602 0-1.09-.496-1.09-1.107v-1.106h2.18v1.106c0 .611-.487 1.107-1.09 1.107zm4.117-18.62l-.753 2.077a2.173 2.173 0 01-2.8 1.313l-2.05-.762c-1.132-.421-1.712-1.692-1.297-2.84l.753-2.077 5.53 2.06.617.229zm10.992 1.736L15.89 20.394l.753-2.078 16.383 6.102c.388.143.822.054 1.124-.232l3.061-2.923 8.582 3.197-2.255 6.231zm7.375-4.324c-.692 1.89-2.55 3.072-4.529 2.877l1.686-4.657 2.753-1.438a4.447 4.447 0 01.09 3.218zm-3.682-3.825a.982.982 0 00-.171.03l-9.726-3.621a1.08 1.08 0 00-1.123.232l-3.065 2.923L11.25 13.95l4.137-11.42 40.812 15.336-8.968 4.676z" fill="url(#paint0_linear)"/><path d="M20.195 14.924l.752-2.077 2.047.763-.752 2.077-2.047-.763zm4.095 1.526l.752-2.078 2.048.763-.752 2.077-2.048-.763zm4.096 1.525l.752-2.077 2.048.763-.752 2.077-2.048-.763z" fill="#7F2210"/><defs><linearGradient id="paint0_linear" x1="30" y1="0" x2="30" y2="52" gradientUnits="userSpaceOnUse"><stop stop-color="#1C8941" stop-opacity=".83"/><stop offset=".99" stop-color="#0C5D27"/></linearGradient></defs></svg>