<svg width="62" height="73" fill="none" xmlns="http://www.w3.org/2000/svg"><path fill-rule="evenodd" clip-rule="evenodd" d="M36.4 70.2h18a1.2 1.2 0 010 2.4H1.6a1.2 1.2 0 010-2.4h18V69a3.604 3.604 0 013.6-3.6V39c.003-.853.46-1.64 1.2-2.066V21a3.594 3.594 0 012.4-3.379v-9.82A7.208 7.208 0 0134 .6h18a3.604 3.604 0 013.6 3.6V9a3.604 3.604 0 01-3.6 3.6h-7.2A3.604 3.604 0 0141.2 9V3H34a4.805 4.805 0 00-4.8 4.8v9.82A3.594 3.594 0 0131.6 21v15.933A2.392 2.392 0 0132.8 39v26.4a3.604 3.604 0 013.6 3.6v1.2zM28 19.8a1.2 1.2 0 00-1.2 1.2v15.6h2.4V21a1.2 1.2 0 00-1.2-1.2zM52 3h-8.4v6c0 .662.538 1.2 1.2 1.2H52c.662 0 1.2-.538 1.2-1.2V4.2A1.202 1.202 0 0052 3zM30.4 39h-4.8v28.8h-2.4c-.662.001-1.2.538-1.2 1.2v1.2h12V69c0-.662-.538-1.199-1.2-1.2h-2.4V39z" fill="url(#paint0_linear)"/><path d="M41.2 13.8a1.2 1.2 0 00-2.049-.848l-3.6 3.6a1.2 1.2 0 101.697 1.697l3.6-3.6a1.2 1.2 0 00.352-.849zm18.352 4.448a1.2 1.2 0 001.697-1.697l-3.6-3.6a1.2 1.2 0 00-1.697 1.697l3.6 3.6zm-18.889 3.825a1.2 1.2 0 001.61-.536l2.4-4.8a1.2 1.2 0 10-2.146-1.074l-2.4 4.8a1.2 1.2 0 00.536 1.61zM47.2 16.2V21a1.2 1.2 0 102.4 0v-4.8a1.2 1.2 0 10-2.4 0zm6.38-1.138a1.2 1.2 0 00-1.454 1.675l2.4 4.8a1.2 1.2 0 002.147-1.074l-2.4-4.8a1.2 1.2 0 00-.694-.601z" fill="#7F2210"/><defs><linearGradient id="paint0_linear" x1="28" y1=".6" x2="28" y2="72.6" gradientUnits="userSpaceOnUse"><stop stop-color="#1C8941" stop-opacity=".83"/><stop offset=".99" stop-color="#0C5D27"/></linearGradient></defs></svg>