<svg width="74" height="48" fill="none" xmlns="http://www.w3.org/2000/svg"><path d="M73.17 45.388L49.303 1.153c-.26-.39-.7-.624-1.174-.624H25.67a1.41 1.41 0 00-1.174.624L.63 45.388a1.364 1.364 0 00-.061 1.416c.244.447.72.725 1.235.725h70.192c.516 0 .99-.278 1.236-.725.245-.447.22-.991-.063-1.416zM26.426 3.294h1.358L11.35 44.764H4.405l22.022-41.47zm11.877 41.47v-5.529h-2.808v5.53h-20.97L30.95 3.294h4.545v1.382h2.808V3.294h4.541l16.425 41.47H38.304zm24.146 0L46.025 3.295h1.358l22.011 41.47H62.45z" fill="url(#paint0_linear)"/><path d="M35.496 6.059h2.807v2.764h-2.807V6.06zm0 5.529h2.807v4.147h-2.807v-4.147zm0 6.912h2.807v5.53h-2.807V18.5zm0 9.676h2.807v6.912h-2.807v-6.912z" fill="#7F2210"/><defs><linearGradient id="paint0_linear" x1="36.9" y1=".529" x2="36.9" y2="47.529" gradientUnits="userSpaceOnUse"><stop stop-color="#1C8941" stop-opacity=".83"/><stop offset=".99" stop-color="#0C5D27"/></linearGradient></defs></svg>