<svg width="40" height="80" fill="none" xmlns="http://www.w3.org/2000/svg"><path d="M39.867 78.255c-1.226-2.4-2.484-8.525-2.977-12.432h1.366c.294 0 .577-.125.785-.346a1.22 1.22 0 00.326-.836c-.004-3.937-1.477-7.713-4.096-10.497-2.619-2.784-6.169-4.35-9.872-4.355h-.477v-2.87a1.22 1.22 0 00-.325-.835 1.079 1.079 0 00-.786-.346h-.793V3.207c0-.85-.318-1.666-.884-2.268A2.928 2.928 0 0020.002 0c-.8 0-1.567.338-2.133.94a3.313 3.313 0 00-.883 2.267v42.531h-.794a1.08 1.08 0 00-.785.346 1.22 1.22 0 00-.326.836v2.869h-.476c-3.703.005-7.254 1.57-9.872 4.355C2.113 56.93.64 60.704.637 64.641c0 .314.117.614.325.836.208.221.491.346.786.346h1.365C2.589 70.04 1.276 76.007.133 78.257a1.243 1.243 0 00.024 1.166c.098.176.238.322.405.423.168.1.357.154.549.154h37.778c.192 0 .382-.053.55-.154.166-.102.306-.247.405-.423a1.239 1.239 0 00.021-1.168h.002zM19.208 3.207c0-.224.084-.439.233-.597a.77.77 0 01.56-.247.77.77 0 01.562.247.872.872 0 01.233.597v42.531h-1.588V3.207zM17.303 48.1H22.7v1.688h-5.397V48.1zm-2.698 4.05h10.794c2.921.005 5.738 1.165 7.9 3.255 2.16 2.09 3.513 4.961 3.794 8.054H2.91c.28-3.093 1.633-5.964 3.794-8.054 2.162-2.09 4.978-3.25 7.9-3.254zM32.05 77.638a26.021 26.021 0 01-1.35-5.086 1.19 1.19 0 00-.462-.75 1.06 1.06 0 00-.823-.19 1.106 1.106 0 00-.713.48 1.24 1.24 0 00-.192.872c.264 1.589.65 3.152 1.152 4.674h-3.565c-.635-1.748-.987-4.726-1.29-7.667a1.237 1.237 0 00-.13-.44 1.168 1.168 0 00-.279-.353 1.09 1.09 0 00-.384-.212 1.048 1.048 0 00-.845.098 1.13 1.13 0 00-.332.296 1.255 1.255 0 00-.238.868c.19 2.5.576 4.979 1.155 7.41h-8.238a28.16 28.16 0 00.777-4.773 1.233 1.233 0 00-.253-.863 1.092 1.092 0 00-.753-.42 1.067 1.067 0 00-.812.268c-.227.2-.369.488-.396.8a25.335 25.335 0 01-.87 4.988h-3.95a73.703 73.703 0 001.527-7.473 1.255 1.255 0 00-.195-.88 1.14 1.14 0 00-.317-.314 1.06 1.06 0 00-1.234.047c-.119.09-.219.205-.296.337a1.229 1.229 0 00-.151.432 70.11 70.11 0 01-1.646 7.851H2.813a64.278 64.278 0 002.543-11.814h29.292a64.127 64.127 0 002.54 11.814h-5.139z" fill="url(#paint0_linear)"/><path d="M25.954 56.034H14.05c-.294 0-.577.124-.785.346a1.22 1.22 0 00-.326.835c0 .314.117.614.326.836.208.221.49.346.785.346h11.905c.295 0 .578-.125.786-.346a1.22 1.22 0 00.325-.836 1.22 1.22 0 00-.325-.835 1.079 1.079 0 00-.786-.346z" fill="#7F2210"/><defs><linearGradient id="paint0_linear" x1="20" y1="0" x2="20" y2="80" gradientUnits="userSpaceOnUse"><stop stop-color="#1C8941" stop-opacity=".83"/><stop offset=".99" stop-color="#0C5D27"/></linearGradient></defs></svg>