<svg width="60" height="60" fill="none" xmlns="http://www.w3.org/2000/svg"><path d="M.132 5.5l3.998 6.996c.135.237.36.408.625.474l3.73.933L21.28 26.697l1.414-1.413L9.699 12.29a.997.997 0 00-.464-.264l-3.585-.899-3.404-5.96 2.919-2.919 5.963 3.408.9 3.584a.996.996 0 00.262.464L25.285 22.7l1.413-1.414L13.904 8.491l-.933-3.728a1 1 0 00-.473-.626L5.5.139A1 1 0 004.301.3l-3.998 4a1 1 0 00-.171 1.2z" fill="url(#paint0_linear)"/><path d="M41.688 19.7l-21.99 21.99-1.413-1.414 21.99-21.99 1.413 1.413zM15.85 42.468a1 1 0 00-.857-.485H8.996a.999.999 0 00-.857.485l-2.998 4.997a1 1 0 000 1.03l2.998 4.997a1 1 0 00.857.485h5.997a1 1 0 00.857-.485l2.998-4.997a1 1 0 000-1.03l-2.998-4.997zm-1.422 9.51H9.562l-2.4-3.998 2.4-3.998h4.866l2.398 3.998-2.398 3.998z" fill="#7F2210"/><path d="M47.978 23.991c6.602.022 11.972-5.312 11.994-11.913a11.958 11.958 0 00-.367-2.98 1 1 0 00-1.676-.466l-6.222 6.218-4.937-1.645-1.647-4.936 6.223-6.223a1 1 0 00-.47-1.677c-6.4-1.621-12.904 2.254-14.526 8.656a11.858 11.858 0 00-.123 5.313l-21.89 21.89a11.822 11.822 0 00-2.342-.243C5.37 35.985 0 41.355 0 47.98c0 6.624 5.37 11.994 11.995 11.994 6.624 0 11.994-5.37 11.994-11.994a11.767 11.767 0 00-.243-2.342l5.24-5.24 2.293 2.291a1 1 0 001.413 0l.5-.5a1.125 1.125 0 011.585 0 1.12 1.12 0 01.002 1.584l-.002.002-.5.5a1 1 0 000 1.413L46.201 57.61a8.067 8.067 0 1011.46-11.357l-.052-.052L45.686 34.28a1 1 0 00-1.413 0l-.5.5a1.125 1.125 0 01-1.585 0 1.12 1.12 0 01-.002-1.583l.002-.002.5-.5a1 1 0 000-1.414l-2.292-2.292 5.24-5.24c.77.16 1.555.24 2.342.243zm3.927 33.984a6.074 6.074 0 01-2.126-.387l7.807-7.807a6.061 6.061 0 01-5.68 8.194zM40.581 31.997a3.12 3.12 0 004.398 4.392l11.217 11.227c.122.122.236.25.346.382l-8.546 8.546a5.867 5.867 0 01-.382-.346L36.388 44.97a3.12 3.12 0 00-4.398-4.392l-1.599-1.6 8.591-8.577 1.6 1.595zm4.037-10.053l-22.675 22.67a1.001 1.001 0 00-.264.95c1.371 5.386-1.883 10.863-7.269 12.234-5.385 1.371-10.862-1.883-12.234-7.269-1.37-5.385 1.884-10.862 7.27-12.234a10.068 10.068 0 014.964 0c.341.084.701-.016.95-.263L38.03 15.36a.999.999 0 00.262-.95c-1.361-5.322 1.85-10.74 7.172-12.103a9.953 9.953 0 013.082-.29l-5.273 5.274a.998.998 0 00-.242 1.022l2 5.998a1 1 0 00.632.631l5.998 2a1 1 0 001.022-.242l5.272-5.272c.012.19.018.38.018.567.028 5.492-4.4 9.967-9.893 9.996a9.96 9.96 0 01-2.518-.311 1 1 0 00-.95.263h.006z" fill="url(#paint1_linear)"/><path d="M51.684 50.272l-1.413 1.413-9.995-9.995 1.413-1.414 9.995 9.995z" fill="#7F2210"/><defs><linearGradient id="paint0_linear" x1="13.351" y1=".008" x2="13.351" y2="26.697" gradientUnits="userSpaceOnUse"><stop stop-color="#1C8941" stop-opacity=".83"/><stop offset=".99" stop-color="#0C5D27"/></linearGradient><linearGradient id="paint1_linear" x1="29.999" y1="0" x2="29.999" y2="60" gradientUnits="userSpaceOnUse"><stop stop-color="#1C8941" stop-opacity=".83"/><stop offset=".99" stop-color="#0C5D27"/></linearGradient></defs></svg>