<svg width="68" height="32" fill="none" xmlns="http://www.w3.org/2000/svg"><g filter="url(#filter0_i)"><rect width="68" height="32" rx="16" fill="#47657A"/></g><path d="M10.813 9.219c0-2.28 1.533-3.37 2.12-4.219C12.55 5.282 8 6.39 8 11c0 3.296 2.704 6 6 6 4.61 0 5.712-4.541 6-4.934-.793.55-1.94 2.121-4.242 2.121-2.714 0-4.945-2.254-4.945-4.968z" fill="#FDFDFD"/><path d="M12 21l.674 2.073h2.18l-1.764 1.281.673 2.073L12 25.146l-1.763 1.281.673-2.073-1.763-1.281h2.18L12 21zM26.5 7l.561 1.727h1.817l-1.47 1.068.561 1.728-1.469-1.068-1.47 1.068.562-1.728-1.47-1.068h1.817L26.5 7zm-8-5l.337 1.036h1.09l-.882.641.337 1.037-.882-.641-.882.64.337-1.036-.882-.64h1.09L18.5 2zm12 22l.337 1.037h1.09l-.882.64.337 1.037-.882-.641-.882.64.337-1.036-.882-.64h1.09L30.5 24zM21 26l.224.691h.727l-.588.427.225.691-.588-.427-.588.427.225-.691-.588-.427h.727L21 26zm11-12l.449 1.382h1.453l-1.175.854.449 1.382L32 16.764l-1.176.854.45-1.382-1.176-.854h1.453L32 14zm-9.5 4l.337 1.037h1.09l-.882.64.337 1.037-.882-.641-.882.64.337-1.036-.882-.64h1.09L22.5 18zm-18-2l.337 1.037h1.09l-.882.64.337 1.037-.882-.641-.882.64.337-1.036-.882-.64h1.09L4.5 16zm30-13l.337 1.036h1.09l-.882.641.337 1.037-.882-.641-.882.64.337-1.036-.882-.64h1.09L34.5 3z" fill="#D1D9DE"/><defs><filter id="filter0_i" x="0" y="0" width="68" height="36" filterUnits="userSpaceOnUse" color-interpolation-filters="sRGB"><feFlood flood-opacity="0" result="BackgroundImageFix"/><feBlend in="SourceGraphic" in2="BackgroundImageFix" result="shape"/><feColorMatrix in="SourceAlpha" values="0 0 0 0 0 0 0 0 0 0 0 0 0 0 0 0 0 0 127 0" result="hardAlpha"/><feOffset dy="4"/><feGaussianBlur stdDeviation="2"/><feComposite in2="hardAlpha" operator="arithmetic" k2="-1" k3="1"/><feColorMatrix values="0 0 0 0 0 0 0 0 0 0 0 0 0 0 0 0 0 0 0.25 0"/><feBlend in2="shape" result="effect1_innerShadow"/></filter></defs></svg>