<svg width="68" height="32" viewBox="0 0 68 32" fill="none" xmlns="http://www.w3.org/2000/svg">
<g filter="url(#filter0_i)">
<rect width="68" height="32" rx="16" transform="matrix(-1 0 0 1 68 0)" fill="#8ECFF3"/>
</g>
<g filter="url(#filter1_d)">
<path d="M53 17C56.3137 17 59 14.3137 59 11C59 7.68629 56.3137 5 53 5C49.6863 5 47 7.68629 47 11C47 14.3137 49.6863 17 53 17Z" fill="#F5DD03"/>
</g>
<path d="M40.6561 14.5108C40.8327 14.5108 41.009 14.5289 41.1821 14.5651C41.3126 13.892 41.7346 13.3178 42.327 13.007C42.9194 12.6962 43.617 12.6832 44.2199 12.9716C44.7656 11.4185 46.4264 10.6166 47.9294 11.1804C49.4324 11.7442 50.2084 13.4605 49.6628 15.0135C50.9794 15.0565 52.0194 16.1825 51.9997 17.5435C51.9799 18.9046 50.9076 19.9978 49.5903 20H40.6561C39.1893 20 38 18.7712 38 17.2554C38 15.7396 39.1893 14.5108 40.6561 14.5108V14.5108Z" fill="#D6F4FF" fill-opacity="0.8"/>
<defs>
<filter id="filter0_i" x="-6" y="-4" width="74" height="36" filterUnits="userSpaceOnUse" color-interpolation-filters="sRGB">
<feFlood flood-opacity="0" result="BackgroundImageFix"/>
<feBlend mode="normal" in="SourceGraphic" in2="BackgroundImageFix" result="shape"/>
<feColorMatrix in="SourceAlpha" type="matrix" values="0 0 0 0 0 0 0 0 0 0 0 0 0 0 0 0 0 0 127 0" result="hardAlpha"/>
<feOffset dx="-6" dy="-4"/>
<feGaussianBlur stdDeviation="4"/>
<feComposite in2="hardAlpha" operator="arithmetic" k2="-1" k3="1"/>
<feColorMatrix type="matrix" values="0 0 0 0 0.622951 0 0 0 0 0.846836 0 0 0 0 0.970833 0 0 0 1 0"/>
<feBlend mode="normal" in2="shape" result="effect1_innerShadow"/>
</filter>
<filter id="filter1_d" x="42" y="0" width="22" height="22" filterUnits="userSpaceOnUse" color-interpolation-filters="sRGB">
<feFlood flood-opacity="0" result="BackgroundImageFix"/>
<feColorMatrix in="SourceAlpha" type="matrix" values="0 0 0 0 0 0 0 0 0 0 0 0 0 0 0 0 0 0 127 0"/>
<feOffset/>
<feGaussianBlur stdDeviation="2.5"/>
<feColorMatrix type="matrix" values="0 0 0 0 0.937255 0 0 0 0 0.85098 0 0 0 0 0.0745098 0 0 0 1 0"/>
<feBlend mode="normal" in2="BackgroundImageFix" result="effect1_dropShadow"/>
<feBlend mode="normal" in="SourceGraphic" in2="effect1_dropShadow" result="shape"/>
</filter>
</defs>
</svg>
