<svg width="60" height="52" viewBox="0 0 60 52" fill="none" xmlns="http://www.w3.org/2000/svg">
<path d="M59.2819 16.6647L15.1181 0.0688439C14.5533 -0.142881 13.9257 0.150098 13.7174 0.72352C13.7169 0.723984 13.7169 0.724449 13.7165 0.724913L8.82754 14.2229C8.61972 14.7963 8.90948 15.4324 9.47482 15.6432H9.47574L14.5949 17.5496L13.467 20.6665C13.2596 21.24 13.5494 21.8751 14.1147 22.0859L24.3549 25.8993L23.6024 27.9771C22.9185 29.838 23.5566 31.933 25.1569 33.0775V38.7235H10.4801C9.76962 37.0762 8.31576 35.8801 6.57946 35.5152V33.1918C6.57946 32.5807 6.09148 32.0853 5.4886 32.0853H1.09085C0.488435 32.0853 0 32.5807 0 33.1918V50.8936C0 51.505 0.488435 52 1.09085 52H5.4886C6.09148 52 6.57946 51.505 6.57946 50.8936V48.5706C8.31576 48.2052 9.76962 47.0096 10.4801 45.3618H25.1569V46.4682C25.1569 48.3013 26.6218 49.7876 28.429 49.7876C30.2363 49.7876 31.7016 48.3013 31.7016 46.4682V34.2118C32.6931 33.7132 33.459 32.8482 33.8407 31.7942L34.5933 29.7164L43.809 33.1462C43.9294 33.1913 44.0562 33.214 44.1844 33.214C44.6417 33.214 45.0509 32.9248 45.2089 32.4893L45.6177 31.3596C49.1672 32.037 52.5858 29.6676 53.2532 26.0679C53.4999 24.7376 53.3397 23.3628 52.794 22.1277L59.4065 18.6839C59.9425 18.4054 60.1544 17.7386 59.8798 17.1949C59.7553 16.9479 59.5438 16.7575 59.2874 16.6614L59.2819 16.6647ZM27.3382 34.0855L28.2414 34.4175C28.6524 34.567 29.0836 34.6529 29.5199 34.672V38.7235H27.3382V34.0855ZM4.39821 49.7876H2.18171V34.2982H4.39821V49.7876ZM8.76117 43.1493C8.75933 44.5553 7.88592 45.8084 6.57946 46.2792V37.8065C7.88592 38.2769 8.75933 39.53 8.76117 40.9364V43.1493ZM10.9767 40.9364H29.5199V43.1493H10.9767V40.9364ZM28.429 47.5747C27.8266 47.5747 27.3382 47.0792 27.3382 46.4682V45.3618H29.5199V46.4682C29.5199 47.0792 29.0315 47.5747 28.429 47.5747ZM32.5457 28.9545L31.7932 31.0322C31.3775 32.1782 30.1246 32.766 28.9939 32.3453L26.9422 31.5829C25.8115 31.1618 25.2311 29.8905 25.6463 28.7432C25.6463 28.7432 25.6463 28.7432 25.6463 28.7427L26.3993 26.6663L31.9282 28.7251L32.5457 28.9545ZM43.5376 30.6914L15.8904 20.394L16.6434 18.3162L33.0259 24.4182C33.4136 24.5612 33.8485 24.4716 34.1502 24.1855L37.2113 21.2627L45.7934 24.4599L43.5376 30.6914ZM50.9126 26.3673C50.2214 28.2575 48.3624 29.4387 46.3844 29.2442L48.0699 24.5872L50.8229 23.1492C51.2537 24.1716 51.2857 25.3222 50.9126 26.3673ZM47.2308 22.5419C47.1731 22.547 47.1159 22.5572 47.0596 22.5725L37.3344 18.9505C36.9467 18.8061 36.5118 18.8957 36.2106 19.1826L33.1459 22.1059L11.2514 13.9508L15.3869 2.52968L56.1994 17.8663L47.2308 22.5419Z" fill="url(#paint0_linear)"/>
<path d="M20.1948 14.924L20.9465 12.8467L22.9945 13.6095L22.2424 15.6869L20.1948 14.924Z" fill="#7F2210"/>
<path d="M24.2904 16.4491L25.0421 14.3718L27.0901 15.1347L26.338 17.2115L24.2904 16.4491Z" fill="#7F2210"/>
<path d="M28.386 17.9752L29.1381 15.8979L31.1857 16.6608L30.4336 18.7381L28.386 17.9752Z" fill="#7F2210"/>
<defs>
<linearGradient id="paint0_linear" x1="30" y1="0" x2="30" y2="52" gradientUnits="userSpaceOnUse">
<stop stop-color="#1C8941" stop-opacity="0.83"/>
<stop offset="0.989583" stop-color="#0C5D27"/>
</linearGradient>
</defs>
</svg>
