<svg width="40" height="80" viewBox="0 0 40 80" fill="none" xmlns="http://www.w3.org/2000/svg">
<path d="M39.8673 78.2549C38.6412 75.8542 37.3828 69.7296 36.8901 65.8228H38.2558C38.5505 65.8228 38.8331 65.6983 39.0415 65.4768C39.2499 65.2552 39.3669 64.9547 39.3669 64.6413C39.3627 60.7036 37.8897 56.9285 35.2711 54.1441C32.6524 51.3597 29.102 49.7935 25.3987 49.789H24.9225V46.9198C24.9225 46.6065 24.8054 46.306 24.597 46.0844C24.3886 45.8629 24.106 45.7384 23.8113 45.7384H23.0177V3.20675C23.0177 2.35627 22.6999 1.54062 22.1344 0.939236C21.5688 0.337853 20.8017 0 20.0018 0C19.2019 0 18.4348 0.337853 17.8693 0.939236C17.3037 1.54062 16.9859 2.35627 16.9859 3.20675V45.7384H16.1923C15.8976 45.7384 15.615 45.8629 15.4066 46.0844C15.1982 46.306 15.0812 46.6065 15.0812 46.9198V49.789H14.605C10.9016 49.7935 7.35118 51.3597 4.73253 54.1441C2.11388 56.9285 0.640871 60.7036 0.63667 64.6413C0.63667 64.9547 0.753733 65.2552 0.962107 65.4768C1.17048 65.6983 1.4531 65.8228 1.74778 65.8228H3.11287C2.58906 70.0395 1.27604 76.0074 0.133177 78.2569C0.0418937 78.4369 -0.00390344 78.639 0.000260617 78.8435C0.00442467 79.048 0.0584059 79.2478 0.156933 79.4234C0.255459 79.5991 0.39516 79.7445 0.562379 79.8456C0.729598 79.9467 0.918615 79.9999 1.11096 80H38.8889C39.0814 80 39.2707 79.9468 39.4381 79.8456C39.6055 79.7444 39.7453 79.5986 39.8438 79.4227C39.9422 79.2467 39.996 79.0465 39.9998 78.8418C40.0036 78.6371 39.9573 78.4348 39.8654 78.2549H39.8673ZM19.2082 3.20675C19.2082 2.98294 19.2918 2.7683 19.4406 2.61004C19.5894 2.45178 19.7913 2.36287 20.0018 2.36287C20.2123 2.36287 20.4142 2.45178 20.563 2.61004C20.7118 2.7683 20.7955 2.98294 20.7955 3.20675V45.7384H19.2082V3.20675ZM17.3034 48.1013H22.7002V49.789H17.3034V48.1013ZM14.605 52.1519H25.3987C28.3205 52.1559 31.1365 53.3159 33.2981 55.4062C35.4598 57.4965 36.8124 60.3674 37.0927 63.4599H2.91096C3.19121 60.3674 4.54385 57.4965 6.7055 55.4062C8.86716 53.3159 11.6831 52.1559 14.605 52.1519ZM32.0495 77.6371C31.4304 75.9977 30.9779 74.2926 30.6996 72.5509C30.6442 72.2463 30.4783 71.9772 30.2379 71.8014C29.9975 71.6257 29.7017 71.5575 29.4145 71.6116C29.1272 71.6656 28.8714 71.8376 28.7023 72.0903C28.5331 72.3431 28.4642 72.6564 28.5104 72.9627C28.7743 74.5515 29.1595 76.1148 29.6622 77.6371H26.0971C25.4621 75.8893 25.1098 72.9114 24.8069 69.97C24.791 69.8158 24.7467 69.6665 24.6766 69.5305C24.6064 69.3945 24.5117 69.2746 24.398 69.1775C24.2842 69.0804 24.1536 69.0081 24.0136 68.9647C23.8735 68.9213 23.7268 68.9077 23.5818 68.9246C23.4368 68.9414 23.2964 68.9885 23.1685 69.0631C23.0406 69.1377 22.9278 69.2384 22.8365 69.3594C22.7452 69.4803 22.6772 69.6192 22.6364 69.7681C22.5956 69.917 22.5828 70.073 22.5986 70.2272C22.789 72.727 23.1753 75.2056 23.7536 77.6371H15.5161C15.9108 76.0745 16.1707 74.4769 16.2926 72.8641C16.3194 72.5521 16.2284 72.2414 16.0398 72.0006C15.8512 71.7598 15.5804 71.6086 15.2869 71.5801C14.9934 71.5516 14.7012 71.6483 14.4748 71.8488C14.2483 72.0494 14.106 72.3374 14.0793 72.6495C13.9556 74.3401 13.6636 76.012 13.2081 77.6371H9.25892C9.89607 75.1775 10.406 72.6826 10.7865 70.1637C10.8099 70.0106 10.8046 69.854 10.7711 69.703C10.7375 69.552 10.6763 69.4095 10.591 69.2837C10.5057 69.1578 10.3978 69.0511 10.2737 68.9696C10.1496 68.888 10.0115 68.8333 9.86749 68.8084C9.5766 68.7583 9.27888 68.8331 9.03985 69.0164C8.92149 69.1071 8.8211 69.2217 8.74441 69.3537C8.66772 69.4857 8.61623 69.6325 8.59288 69.7857C8.19385 72.4357 7.64427 75.0577 6.94717 77.6371H2.81255C4.02717 73.7986 4.87921 69.8409 5.35605 65.8228H34.6476C35.1223 69.8409 35.9731 73.7987 37.1873 77.6371H32.0495Z" fill="url(#paint0_linear)"/>
<path d="M25.9542 56.0339H14.0494C13.7547 56.0339 13.4721 56.1583 13.2637 56.3799C13.0554 56.6015 12.9383 56.902 12.9383 57.2153C12.9383 57.5286 13.0554 57.8291 13.2637 58.0507C13.4721 58.2723 13.7547 58.3967 14.0494 58.3967H25.9542C26.2489 58.3967 26.5315 58.2723 26.7399 58.0507C26.9483 57.8291 27.0653 57.5286 27.0653 57.2153C27.0653 56.902 26.9483 56.6015 26.7399 56.3799C26.5315 56.1583 26.2489 56.0339 25.9542 56.0339Z" fill="#7F2210"/>
<defs>
<linearGradient id="paint0_linear" x1="20" y1="0" x2="20" y2="80" gradientUnits="userSpaceOnUse">
<stop stop-color="#1C8941" stop-opacity="0.83"/>
<stop offset="0.989583" stop-color="#0C5D27"/>
</linearGradient>
</defs>
</svg>
