<svg width="48" height="60" viewBox="0 0 48 60" fill="none" xmlns="http://www.w3.org/2000/svg">
<path d="M46.8493 14.7467C47.1544 14.7466 47.447 14.6254 47.6628 14.4098C47.8785 14.1943 47.9998 13.9019 48 13.5971V7.25413C47.9998 6.94927 47.8785 6.65695 47.6628 6.44138C47.447 6.22581 47.1544 6.10463 46.8493 6.10446H35.1452V1.14968C35.1452 0.844762 35.024 0.552339 34.8082 0.336733C34.5924 0.121127 34.2997 0 33.9945 0H14.0055C13.7003 0 13.4076 0.121127 13.1918 0.336733C12.976 0.552339 12.8548 0.844762 12.8548 1.14968V6.10446H1.15068C0.845558 6.10463 0.552978 6.22581 0.33722 6.44138C0.121463 6.65695 0.000174209 6.94927 0 7.25413V13.5971C0.000174209 13.9019 0.121463 14.1943 0.33722 14.4098C0.552978 14.6254 0.845558 14.7466 1.15068 14.7467H3.01874L5.39967 58.9121C5.4158 59.2058 5.5439 59.4822 5.75766 59.6846C5.97141 59.8869 6.25459 59.9998 6.54904 60H41.451C41.7454 59.9998 42.0286 59.8869 42.2423 59.6846C42.4561 59.4822 42.5842 59.2058 42.6003 58.9121L44.9813 14.7467H46.8493ZM15.1562 2.29935H32.8438V6.10446H15.1562V2.29935ZM2.30137 8.40381H45.6986V12.4474H2.30137V8.40381ZM40.3608 57.7006H7.63923L5.32405 14.7467H42.6759L40.3608 57.7006Z" fill="url(#paint0_linear)"/>
<path d="M15.2956 46.6077C15.6007 46.6075 15.8933 46.4863 16.109 46.2708C16.3248 46.0552 16.4461 45.7629 16.4462 45.458V24.3138C16.4462 24.0089 16.325 23.7165 16.1092 23.5009C15.8934 23.2853 15.6007 23.1641 15.2956 23.1641C14.9904 23.1641 14.6977 23.2853 14.4819 23.5009C14.2661 23.7165 14.1449 24.0089 14.1449 24.3138V45.458C14.1449 45.7629 14.2661 46.0553 14.4819 46.271C14.6977 46.4866 14.9904 46.6077 15.2956 46.6077Z" fill="#7F2210"/>
<path d="M24 46.6077C24.3051 46.6075 24.5977 46.4863 24.8135 46.2708C25.0292 46.0552 25.1505 45.7629 25.1507 45.458V24.3138C25.1507 24.0089 25.0294 23.7165 24.8136 23.5009C24.5979 23.2853 24.3052 23.1641 24 23.1641C23.6948 23.1641 23.4021 23.2853 23.1863 23.5009C22.9705 23.7165 22.8493 24.0089 22.8493 24.3138V45.458C22.8495 45.7629 22.9708 46.0552 23.1865 46.2708C23.4023 46.4863 23.6949 46.6075 24 46.6077Z" fill="#7F2210"/>
<path d="M32.7044 46.6077C33.0096 46.6077 33.3023 46.4866 33.5181 46.271C33.7338 46.0553 33.8551 45.7629 33.8551 45.458V24.3138C33.8551 24.0089 33.7338 23.7165 33.5181 23.5009C33.3023 23.2853 33.0096 23.1641 32.7044 23.1641C32.3992 23.1641 32.1065 23.2853 31.8907 23.5009C31.6749 23.7165 31.5537 24.0089 31.5537 24.3138V45.458C31.5539 45.7629 31.6752 46.0552 31.8909 46.2708C32.1067 46.4863 32.3993 46.6075 32.7044 46.6077Z" fill="#7F2210"/>
<defs>
<linearGradient id="paint0_linear" x1="24" y1="0" x2="24" y2="60" gradientUnits="userSpaceOnUse">
<stop stop-color="#1C8941" stop-opacity="0.83"/>
<stop offset="0.989583" stop-color="#0C5D27"/>
</linearGradient>
</defs>
</svg>
