<svg width="62" height="73" viewBox="0 0 62 73" fill="none" xmlns="http://www.w3.org/2000/svg">
<path fill-rule="evenodd" clip-rule="evenodd" d="M36.4 70.2001H54.4001C55.0627 70.2001 55.5999 70.7374 55.5999 71.4002C55.5999 72.0629 55.0627 72.6001 54.3999 72.6001H1.59995C0.937189 72.6001 0.400002 72.0628 0.400002 71.4C0.400002 70.7372 0.937189 70.2001 1.59995 70.2001H19.5999V69.0001C19.602 67.0128 21.2126 65.4022 23.1999 65.4001V39.0001C23.2026 38.1467 23.6599 37.3592 24.3999 36.9339V21.0001C24.4046 19.4794 25.3657 18.1263 26.7999 17.6212V7.8001C26.8043 3.82547 30.0253 0.604457 33.9999 0.600098H51.9999C53.9872 0.602207 55.5978 2.21279 55.5999 4.2001V9.00019C55.5978 10.9875 53.9872 12.5981 51.9999 12.6002H44.7999C42.8126 12.5981 41.202 10.9875 41.1999 9.00019V3.00014H33.9999C31.3503 3.0031 29.203 5.15044 29.2 7.8001V17.6212C30.6342 18.1265 31.5954 19.4796 31.6 21.0001V36.9339C32.34 37.3592 32.7973 38.1467 32.8 39.0001V65.4001C34.7873 65.4022 36.3978 67.0128 36.4 69.0001V70.2001ZM28 19.8002C27.3372 19.8002 26.8 20.3374 26.8 21.0001L26.7999 36.6001H29.2V21.0001C29.2 20.3374 28.6628 19.8002 28 19.8002ZM51.9999 3.00014H43.6L43.5998 5.40005L43.6 7.8001L43.6001 9.00005C43.6009 9.66239 44.1377 10.1992 44.8001 10.2H52C52.6624 10.1992 53.1992 9.66239 53.2 9.00005V7.8001L53.1999 5.40005V4.2001C53.199 3.53775 52.6623 3.00099 51.9999 3.00014ZM30.3999 39.0001H25.6V42.6001V45.0001V65.4001V67.8001H23.2001C22.5377 67.801 22.0009 68.3378 22.0001 69.0001V70.2001H34V69.0001C33.9992 68.3378 33.4624 67.801 32.8001 67.8001L30.4 67.8001L30.3999 65.4001V45.0001V42.6001V39.0001Z" fill="url(#paint0_linear)"/>
<path d="M41.1999 13.8003C41.1999 13.4821 41.0735 13.1769 40.8483 12.9519C40.6233 12.7268 40.3182 12.6003 39.9999 12.6003C39.6817 12.6003 39.3765 12.7268 39.1515 12.9519L35.5515 16.5519C35.2453 16.8544 35.1245 17.2978 35.235 17.7138C35.3455 18.1297 35.6705 18.4547 36.0865 18.5652C36.5024 18.6758 36.9458 18.555 37.2483 18.2487L40.8483 14.6487C41.0735 14.4237 41.1999 14.1185 41.1999 13.8003Z" fill="#7F2210"/>
<path d="M59.5516 18.2485C59.7763 18.4739 60.0816 18.6005 60.4 18.6C60.8853 18.5999 61.3228 18.3075 61.5084 17.8592C61.694 17.4109 61.5915 16.8948 61.2484 16.5517L57.6484 12.9517C57.1786 12.4903 56.4248 12.4938 55.9592 12.9593C55.4936 13.4248 55.4902 14.1787 55.9516 14.6485L59.5516 18.2485Z" fill="#7F2210"/>
<path d="M40.6634 22.0735C41.2562 22.3697 41.977 22.1295 42.2735 21.5368L44.6736 16.7368C44.8665 16.3532 44.8398 15.8956 44.6034 15.537C44.367 15.1784 43.9571 14.9735 43.5285 14.9995C43.0998 15.0255 42.7178 15.2787 42.5267 15.6633L40.1266 20.4632C39.9842 20.7478 39.9608 21.0775 40.0615 21.3795C40.1622 21.6816 40.3786 21.9312 40.6634 22.0735Z" fill="#7F2210"/>
<path d="M47.2 16.2V20.9999C47.2 21.6627 47.7373 22.1999 48.4 22.1999C49.0626 22.1999 49.5999 21.6625 49.5999 20.9999V16.2C49.5999 15.5372 49.0627 15 48.4 15C47.7372 15 47.2 15.5373 47.2 16.2Z" fill="#7F2210"/>
<path d="M53.5795 15.0616C53.2776 14.9609 52.9479 14.9844 52.6632 15.1267C52.3784 15.269 52.162 15.5186 52.0613 15.8205C51.9606 16.1225 51.9841 16.4521 52.1264 16.7369L54.5265 21.5368C54.8237 22.128 55.5435 22.3669 56.1353 22.071C56.7272 21.7752 56.9678 21.056 56.6734 20.4634L54.2733 15.6635C54.131 15.3787 53.8814 15.1621 53.5795 15.0616Z" fill="#7F2210"/>
<defs>
<linearGradient id="paint0_linear" x1="28" y1="0.600098" x2="28" y2="72.6001" gradientUnits="userSpaceOnUse">
<stop stop-color="#1C8941" stop-opacity="0.83"/>
<stop offset="0.989583" stop-color="#0C5D27"/>
</linearGradient>
</defs>
</svg>
