<svg width="60" height="60" viewBox="0 0 60 60" fill="none" xmlns="http://www.w3.org/2000/svg">
<path d="M0.131965 5.49969L4.13033 12.4964C4.2652 12.7329 4.49094 12.9039 4.75492 12.9701L8.4852 13.9027L21.2792 26.6967L22.6929 25.2835L9.6986 12.2896C9.57073 12.1613 9.41036 12.0704 9.23479 12.0264L5.65048 11.1272L2.24628 5.16663L5.16487 2.24804L11.1279 5.65553L12.0276 9.23984C12.0711 9.41582 12.1624 9.5766 12.2903 9.70448L25.2846 22.6988L26.6978 21.2851L13.9038 8.49107L12.9712 4.76285C12.905 4.49846 12.734 4.27231 12.4975 4.13703L5.5004 0.13907C5.11019 -0.0829699 4.61923 -0.0171802 4.30097 0.299844L0.303019 4.29821C-0.0185285 4.61441 -0.08843 5.10619 0.131965 5.49969Z" fill="url(#paint0_linear)"/>
<path d="M41.6885 19.6994L19.6987 41.6896L18.285 40.2759L40.2752 18.2861L41.6885 19.6994Z" fill="#7F2210"/>
<path d="M15.85 42.4677C15.669 42.1667 15.3442 41.9829 14.9931 41.9829H8.99592C8.64518 41.9829 8.31993 42.1667 8.13942 42.4677L5.14065 47.4652C4.95027 47.7818 4.95027 48.1778 5.14065 48.4948L8.13942 53.4924C8.31993 53.793 8.64518 53.9772 8.99592 53.9772H14.9931C15.3442 53.9772 15.669 53.793 15.85 53.4924L18.8483 48.4948C19.0387 48.1778 19.0387 47.7818 18.8483 47.4652L15.85 42.4677ZM14.4277 51.978H9.56171L7.16286 47.98L9.56171 43.9817H14.4277L16.8265 47.98L14.4277 51.978Z" fill="#7F2210"/>
<path d="M47.9779 23.991C54.5795 24.0132 59.9496 18.6793 59.9718 12.0777C59.9751 11.0728 59.8517 10.072 59.6046 9.09786C59.4714 8.56209 58.929 8.23602 58.3933 8.36924C58.2173 8.41324 58.0569 8.50411 57.9286 8.63199L51.7066 14.8499L46.7699 13.2048L45.1235 8.26932L51.3455 2.04603C51.7358 1.65541 51.7354 1.02259 51.3447 0.63238C51.216 0.503679 51.054 0.412396 50.8768 0.36881C44.4746 -1.25249 37.9709 2.62293 36.3496 9.02467C36.1033 9.99589 35.9804 10.9942 35.9837 11.9963C35.9861 12.7833 36.0671 13.5679 36.2267 14.3384L14.3364 36.2283C13.5658 36.0691 12.7813 35.9881 11.9947 35.9853C5.37008 35.9853 0 41.3553 0 47.9799C0 54.6041 5.37008 59.9742 11.9947 59.9742C18.6189 59.9742 23.989 54.6041 23.989 47.9799C23.9865 47.1929 23.9051 46.4084 23.746 45.6378L28.9865 40.3973L31.2785 42.6892C31.6691 43.0794 32.3015 43.0794 32.6921 42.6892L33.1917 42.1892C33.63 41.7538 34.3385 41.7538 34.7768 42.1892C35.2147 42.6259 35.2156 43.3348 34.7789 43.7727C34.7785 43.7731 34.7777 43.7739 34.7768 43.7748L34.2772 44.2743C33.887 44.6646 33.887 45.2974 34.2772 45.6876L46.2008 57.6111C49.3369 60.776 54.4447 60.7991 57.6095 57.6629C60.774 54.5268 60.7971 49.4187 57.6609 46.2542C57.6441 46.2369 57.6268 46.2197 57.6095 46.2024L45.686 34.2793C45.2958 33.889 44.663 33.889 44.2727 34.2793L43.7732 34.7788C43.3344 35.2147 42.6264 35.2147 42.1876 34.7788C41.7501 34.3422 41.7489 33.6333 42.1856 33.1958C42.1864 33.195 42.1872 33.1945 42.1876 33.1937L42.6876 32.6937C43.0778 32.3035 43.0778 31.6707 42.6876 31.2805L40.3957 28.9885L45.6362 23.748C46.4068 23.9071 47.1913 23.9885 47.9779 23.991ZM51.9052 57.9754C51.179 57.9742 50.459 57.843 49.7793 57.5877L57.5857 49.7809C58.7637 52.9146 57.1786 56.4097 54.045 57.5877C53.3612 57.8447 52.6363 57.9763 51.9052 57.9754ZM40.5815 31.9972C39.4746 33.3175 39.6481 35.2854 40.9685 36.3919C42.1288 37.3644 43.82 37.3636 44.9792 36.389L56.1963 47.6161C56.318 47.7382 56.4319 47.8669 56.5421 47.9976L47.996 56.5437C47.8649 56.4339 47.7362 56.32 47.614 56.1979L36.3883 44.9713C37.4952 43.651 37.3217 41.6831 36.0013 40.5766C34.841 39.6037 33.1494 39.6049 31.9902 40.579L30.3911 38.9799L38.982 30.4018L40.5815 31.9972ZM44.6177 21.9441L21.9429 44.6144C21.6941 44.8628 21.5942 45.2234 21.6789 45.5642C23.0502 50.9495 19.7961 56.4269 14.4104 57.7978C9.02511 59.1691 3.54771 55.915 2.1764 50.5293C0.805512 45.144 4.05963 39.6666 9.44534 38.2953C11.0745 37.8808 12.7813 37.8808 14.4104 38.2953C14.7513 38.3788 15.1111 38.2789 15.3602 38.0317L38.0297 15.361C38.2781 15.1127 38.378 14.7521 38.2925 14.4116C36.9306 9.08923 40.1412 3.67063 45.4635 2.30837C46.4693 2.05138 47.5096 1.9527 48.5458 2.01725L43.2732 7.29194C43.0055 7.55921 42.9117 7.95518 43.0314 8.31414L45.0302 14.3117C45.1301 14.6098 45.3644 14.8442 45.663 14.9433L51.6605 16.9425C52.0191 17.0621 52.415 16.9688 52.6827 16.7015L57.9554 11.4289C57.9673 11.6197 57.9734 11.8084 57.9734 11.9963C58.0014 17.4885 53.5721 21.9634 48.0799 21.9918C47.2308 21.9959 46.3846 21.8915 45.5622 21.681C45.2214 21.5958 44.8607 21.6953 44.6124 21.9437H44.6177V21.9441Z" fill="url(#paint1_linear)"/>
<path d="M51.6844 50.2715L50.2708 51.6852L40.2757 41.6901L41.6889 40.2764L51.6844 50.2715Z" fill="#7F2210"/>
<defs>
<linearGradient id="paint0_linear" x1="13.3511" y1="0.00842285" x2="13.3511" y2="26.6967" gradientUnits="userSpaceOnUse">
<stop stop-color="#1C8941" stop-opacity="0.83"/>
<stop offset="0.989583" stop-color="#0C5D27"/>
</linearGradient>
<linearGradient id="paint1_linear" x1="29.999" y1="0" x2="29.999" y2="60" gradientUnits="userSpaceOnUse">
<stop stop-color="#1C8941" stop-opacity="0.83"/>
<stop offset="0.989583" stop-color="#0C5D27"/>
</linearGradient>
</defs>
</svg>
