<svg width="58" height="73" viewBox="0 0 58 73" fill="none" xmlns="http://www.w3.org/2000/svg">
<path d="M39.6968 0.600098H0.799988V72.6001H57.2V18.1033L39.6968 0.600098ZM40.4 4.6969L53.1032 17.4001H40.4V4.6969ZM3.19999 70.2001V3.0001H38V19.8001H54.8V70.2001H3.19999Z" fill="url(#paint0_linear)"/>
<path d="M44 25.8H24.8C24.1376 25.8 23.6 26.3364 23.6 27C23.6 27.6636 24.1376 28.2 24.8 28.2H44C44.6624 28.2 45.2 27.6636 45.2 27C45.2 26.3364 44.6624 25.8 44 25.8Z" fill="url(#paint1_linear)"/>
<path d="M20.45 22.4628L15.2888 26.592L13.6484 24.9516C13.1792 24.4824 12.4208 24.4824 11.9516 24.9516C11.4824 25.4208 11.4824 26.1792 11.9516 26.6484L14.3516 29.0484C14.5844 29.2812 14.8916 29.4 15.2 29.4C15.464 29.4 15.7292 29.3136 15.9488 29.1372L21.9488 24.3372C22.4672 23.922 22.55 23.1672 22.136 22.65C21.7232 22.1316 20.9672 22.0488 20.45 22.4628Z" fill="#7F2210"/>
<path d="M44 39H24.8C24.1376 39 23.6 39.5364 23.6 40.2C23.6 40.8636 24.1376 41.4 24.8 41.4H44C44.6624 41.4 45.2 40.8636 45.2 40.2C45.2 39.5364 44.6624 39 44 39Z" fill="url(#paint2_linear)"/>
<path d="M20.45 35.6628L15.2888 39.792L13.6484 38.1516C13.1792 37.6824 12.4208 37.6824 11.9516 38.1516C11.4824 38.6208 11.4824 39.3792 11.9516 39.8484L14.3516 42.2484C14.5844 42.4812 14.8916 42.6 15.2 42.6C15.464 42.6 15.7292 42.5136 15.9488 42.3372L21.9488 37.5372C22.4672 37.122 22.55 36.3672 22.136 35.85C21.7232 35.3316 20.9672 35.2488 20.45 35.6628Z" fill="#7F2210"/>
<path d="M44 52.2001H24.8C24.1376 52.2001 23.6 52.7365 23.6 53.4001C23.6 54.0637 24.1376 54.6001 24.8 54.6001H44C44.6624 54.6001 45.2 54.0637 45.2 53.4001C45.2 52.7365 44.6624 52.2001 44 52.2001Z" fill="url(#paint3_linear)"/>
<path d="M20.45 48.863L15.2888 52.9922L13.6484 51.3518C13.1792 50.8826 12.4208 50.8826 11.9516 51.3518C11.4824 51.821 11.4824 52.5794 11.9516 53.0486L14.3516 55.4486C14.5844 55.6814 14.8916 55.8002 15.2 55.8002C15.464 55.8002 15.7292 55.7138 15.9488 55.5374L21.9488 50.7374C22.4672 50.3222 22.55 49.5674 22.136 49.0502C21.7232 48.5318 20.9672 48.449 20.45 48.863Z" fill="#7F2210"/>
<defs>
<linearGradient id="paint0_linear" x1="29" y1="0.600098" x2="29" y2="72.6001" gradientUnits="userSpaceOnUse">
<stop stop-color="#1C8941" stop-opacity="0.83"/>
<stop offset="0.989583" stop-color="#0C5D27"/>
</linearGradient>
<linearGradient id="paint1_linear" x1="34.4" y1="25.8" x2="34.4" y2="28.2" gradientUnits="userSpaceOnUse">
<stop stop-color="#1C8941" stop-opacity="0.83"/>
<stop offset="0.989583" stop-color="#0C5D27"/>
</linearGradient>
<linearGradient id="paint2_linear" x1="34.4" y1="39" x2="34.4" y2="41.4" gradientUnits="userSpaceOnUse">
<stop stop-color="#1C8941" stop-opacity="0.83"/>
<stop offset="0.989583" stop-color="#0C5D27"/>
</linearGradient>
<linearGradient id="paint3_linear" x1="34.4" y1="52.2001" x2="34.4" y2="54.6001" gradientUnits="userSpaceOnUse">
<stop stop-color="#1C8941" stop-opacity="0.83"/>
<stop offset="0.989583" stop-color="#0C5D27"/>
</linearGradient>
</defs>
</svg>
