<svg width="74" height="48" viewBox="0 0 74 48" fill="none" xmlns="http://www.w3.org/2000/svg">
<path d="M73.1691 45.3883L49.304 1.15298C49.0449 0.763514 48.6034 0.529297 48.1305 0.529297H25.6691C25.1968 0.529297 24.7554 0.763514 24.4956 1.15298L0.630418 45.3883C0.347321 45.8128 0.32333 46.3569 0.568727 46.8037C0.813438 47.2512 1.28847 47.5293 1.80394 47.5293H71.9956C72.5118 47.5293 72.9861 47.2512 73.2315 46.8037C73.4769 46.3569 73.4529 45.8128 73.1691 45.3883ZM26.4272 3.294H27.7851L11.3504 44.7646H4.40528L26.4272 3.294ZM38.3036 44.7646V39.2352H35.4959V44.7646H14.5255L30.9506 3.294H35.4959V4.67636H38.3036V3.294H42.8455L59.2699 44.7646H38.3036ZM62.4498 44.7646L46.0247 3.294H47.3826L69.3943 44.7646H62.4498Z" fill="url(#paint0_linear)"/>
<path d="M35.4957 6.05859H38.3034V8.82332H35.4957V6.05859Z" fill="#7F2210"/>
<path d="M35.4957 11.5879H38.3034V15.735H35.4957V11.5879Z" fill="#7F2210"/>
<path d="M35.4957 18.5H38.3034V24.0294H35.4957V18.5Z" fill="#7F2210"/>
<path d="M35.4957 28.1763H38.3034V35.0881H35.4957V28.1763Z" fill="#7F2210"/>
<defs>
<linearGradient id="paint0_linear" x1="36.9001" y1="0.529297" x2="36.9001" y2="47.5293" gradientUnits="userSpaceOnUse">
<stop stop-color="#1C8941" stop-opacity="0.83"/>
<stop offset="0.989583" stop-color="#0C5D27"/>
</linearGradient>
</defs>
</svg>
