<svg width="41" height="73" viewBox="0 0 41 73" fill="none" xmlns="http://www.w3.org/2000/svg">
<path d="M40.7399 25.3201C40.4999 24.8402 40.1399 24.6001 39.6599 24.6001H25.5L39.54 2.4001C39.78 2.0401 39.78 1.56014 39.54 1.20014C39.2999 0.840145 38.9399 0.600098 38.46 0.600098H19.26C18.7801 0.600098 18.4201 0.840145 18.18 1.20014L0.180035 37.2001C-0.0600117 37.5601 -0.0600117 38.0401 0.180035 38.4001C0.420082 38.7601 0.900035 39.0001 1.26003 39.0001H13.62L0.180035 71.0401C-0.0600117 71.5201 0.180035 72.1201 0.659988 72.4801C0.779942 72.6001 1.01999 72.6001 1.26003 72.6001C1.62003 72.6001 1.98004 72.4801 2.22008 72.2401L40.6201 26.6401C40.86 26.2801 40.98 25.8001 40.7399 25.3201ZM5.45994 64.5601L16.5 38.1602C16.6199 37.8002 16.6199 37.4402 16.38 37.0802C16.14 36.8401 15.78 36.6002 15.42 36.6002H3.17999L19.98 3.00014H36.3L22.5227 24.6001L22.14 25.2001C21.9 25.5601 21.9 26.04 22.14 26.4C22.3801 26.76 22.7401 27.0001 23.22 27.0001H37.1401L5.45994 64.5601Z" fill="url(#paint0_linear)"/>
<defs>
<linearGradient id="paint0_linear" x1="20.4354" y1="0.600098" x2="20.4354" y2="72.6001" gradientUnits="userSpaceOnUse">
<stop stop-color="#1C8941" stop-opacity="0.83"/>
<stop offset="0.989583" stop-color="#0C5D27"/>
</linearGradient>
</defs>
</svg>
