<svg width="68" height="32" viewBox="0 0 68 32" fill="none" xmlns="http://www.w3.org/2000/svg">
<g filter="url(#filter0_i)">
<rect width="68" height="32" rx="16" fill="#47657A"/>
</g>
<path d="M10.8125 9.21875C10.8125 6.93835 12.3461 5.84933 12.9339 5C12.5489 5.28244 8 6.38959 8 11C8 14.2955 10.7045 17 14 17C18.6099 17 19.712 12.459 20 12.0665C19.2068 12.6153 18.0596 14.1875 15.7578 14.1875C13.0438 14.1875 10.8125 11.9327 10.8125 9.21875Z" fill="#FDFDFD"/>
<path d="M12 21L12.6735 23.0729H14.8532L13.0898 24.3541L13.7634 26.4271L12 25.1459L10.2366 26.4271L10.9102 24.3541L9.14683 23.0729H11.3265L12 21Z" fill="#D1D9DE"/>
<path d="M26.5 7L27.0613 8.72746H28.8776L27.4082 9.79508L27.9695 11.5225L26.5 10.4549L25.0305 11.5225L25.5918 9.79508L24.1224 8.72746H25.9387L26.5 7Z" fill="#D1D9DE"/>
<path d="M18.5 2L18.8368 3.03647H19.9266L19.0449 3.67705L19.3817 4.71353L18.5 4.07295L17.6183 4.71353L17.9551 3.67705L17.0734 3.03647H18.1632L18.5 2Z" fill="#D1D9DE"/>
<path d="M30.5 24L30.8368 25.0365H31.9266L31.0449 25.6771L31.3817 26.7135L30.5 26.0729L29.6183 26.7135L29.9551 25.6771L29.0734 25.0365H30.1632L30.5 24Z" fill="#D1D9DE"/>
<path d="M21 26L21.2245 26.691H21.9511L21.3633 27.118L21.5878 27.809L21 27.382L20.4122 27.809L20.6367 27.118L20.0489 26.691H20.7755L21 26Z" fill="#D1D9DE"/>
<path d="M32 14L32.449 15.382H33.9021L32.7265 16.2361L33.1756 17.618L32 16.7639L30.8244 17.618L31.2735 16.2361L30.0979 15.382H31.551L32 14Z" fill="#D1D9DE"/>
<path d="M22.5 18L22.8368 19.0365H23.9266L23.0449 19.6771L23.3817 20.7135L22.5 20.0729L21.6183 20.7135L21.9551 19.6771L21.0734 19.0365H22.1632L22.5 18Z" fill="#D1D9DE"/>
<path d="M4.5 16L4.83677 17.0365H5.92658L5.04491 17.6771L5.38168 18.7135L4.5 18.0729L3.61832 18.7135L3.95509 17.6771L3.07342 17.0365H4.16323L4.5 16Z" fill="#D1D9DE"/>
<path d="M34.5 3L34.8368 4.03647H35.9266L35.0449 4.67705L35.3817 5.71353L34.5 5.07295L33.6183 5.71353L33.9551 4.67705L33.0734 4.03647H34.1632L34.5 3Z" fill="#D1D9DE"/>
<defs>
<filter id="filter0_i" x="0" y="0" width="68" height="36" filterUnits="userSpaceOnUse" color-interpolation-filters="sRGB">
<feFlood flood-opacity="0" result="BackgroundImageFix"/>
<feBlend mode="normal" in="SourceGraphic" in2="BackgroundImageFix" result="shape"/>
<feColorMatrix in="SourceAlpha" type="matrix" values="0 0 0 0 0 0 0 0 0 0 0 0 0 0 0 0 0 0 127 0" result="hardAlpha"/>
<feOffset dy="4"/>
<feGaussianBlur stdDeviation="2"/>
<feComposite in2="hardAlpha" operator="arithmetic" k2="-1" k3="1"/>
<feColorMatrix type="matrix" values="0 0 0 0 0 0 0 0 0 0 0 0 0 0 0 0 0 0 0.25 0"/>
<feBlend mode="normal" in2="shape" result="effect1_innerShadow"/>
</filter>
</defs>
</svg>
